<svg id="Layer_1" data-name="Layer 1" xmlns="http://www.w3.org/2000/svg" viewBox="0 0 300 88"><defs><style>.cls-1,.cls-2{fill:#fff;}.cls-1{stroke:#fff;stroke-miterlimit:10;stroke-width:1.2px;}.cls-3{fill:#203342;fill-rule:evenodd;}</style></defs><g id="Layer_2" data-name="Layer 2"><path class="cls-1" d="M76.35,77.76a.68.68,0,0,1-.72.64H74.41c-.43,0-.64-.21-.55-.64l3.22-18.37c.39-2.06,0-2.66-1.59-2.66s-2.62.82-3,2.88L69.3,77.76a.68.68,0,0,1-.72.64H67.36c-.43,0-.64-.21-.56-.64l5-28.08H65.9L61,77.76a.69.69,0,0,1-.74.64H58.85c-.43,0-.65-.21-.56-.64l4.94-28.08H58c-.43,0-.6-.22-.51-.65l.21-1.12a.64.64,0,0,1,.66-.64H72.18l.47-2.62a.73.73,0,0,1,.78-.65h1.2c.43,0,.6.21.52.65l-2,11.43a6.52,6.52,0,0,1,4-1.59c1.81,0,3.14,1.12,2.71,3.66Z"/><path class="cls-1" d="M91.23,67c-.09.44-.3.65-.73.65H84.09L83,73.71c-.39,2.07.21,2.67,1.8,2.67s2.37-.6,2.75-2.67l.31-1.85a.71.71,0,0,1,.77-.64h1.2c.43,0,.61.21.52.64l-.3,1.85c-.56,3.1-1.64,4.91-5.64,4.91S80,76.81,80.52,73.71L83,59.39c.56-3.09,1.67-4.9,5.67-4.9s4.43,1.81,3.87,4.9Zm-6.75-1.59H89l1-6c.39-2.06-.22-2.66-1.81-2.66s-2.36.6-2.75,2.66Z"/><path class="cls-1" d="M105.38,65.24l-2.2,12.52a.67.67,0,0,1-.7.64h-1.4c-.43,0-.65-.21-.56-.64l5.29-29.85a.64.64,0,0,1,.66-.64h4.24c5.67,0,6.28,2.58,5.5,6.92l-.73,4.13c-.77,4.39-2.28,6.92-8,6.92ZM108,62.83c3.44,0,4.34-1.63,4.86-4.51l.73-4.13c.47-2.84.17-4.51-3.27-4.51h-2.15l-2.32,13.15Z"/><path class="cls-1" d="M118.58,55.35a.71.71,0,0,1,.77-.64h1.21c.43,0,.6.21.51.64l-3.22,18.36c-.39,2.07,0,2.67,1.59,2.67s2.62-.82,3-2.88l3.18-18.15a.71.71,0,0,1,.77-.64h1.21c.43,0,.6.21.51.64l-4,22.41a.68.68,0,0,1-.72.64h-1.22c-.43,0-.64-.21-.56-.64l.13-.74a6.37,6.37,0,0,1-4,1.6c-1.81,0-3.18-1.12-2.71-3.66Z"/><path class="cls-1" d="M137.15,77.76a.67.67,0,0,1-.7.64h-1.23c-.43,0-.65-.21-.56-.64l3.23-18.37c.38-2.06,0-2.66-1.6-2.66s-2.62.82-3,2.88L130.1,77.76a.67.67,0,0,1-.7.64h-1.23c-.43,0-.65-.21-.56-.64l4-22.41a.72.72,0,0,1,.78-.64h1.2c.43,0,.6.21.52.64l-.13.73a6.47,6.47,0,0,1,4-1.59c1.8,0,3.14,1.12,2.71,3.66Z"/><path class="cls-1" d="M146,54.71l1.2-6.8a.66.66,0,0,1,.68-.64h1.26c.43,0,.6.21.56.64l-1.21,6.8h3c.43,0,.61.21.52.64l-.17.95a.72.72,0,0,1-.78.64h-3l-2.79,16c-.34,2.06-.09,3.26,2.32,3.26h1c.43,0,.6.22.52.65l-.18,1a.67.67,0,0,1-.7.64h-1c-4.51,0-5-2-4.42-5.5l2.79-16h-2.15c-.43,0-.6-.21-.52-.64l.18-1a.71.71,0,0,1,.77-.64Z"/><path class="cls-1" d="M162.27,67c-.09.44-.3.65-.73.65h-6.41l-1.08,6.06c-.38,2.07.22,2.67,1.81,2.67s2.37-.6,2.75-2.67l.3-1.85a.72.72,0,0,1,.78-.64h1.2c.43,0,.6.21.52.64l-.3,1.85c-.56,3.1-1.64,4.91-5.64,4.91s-4.47-1.81-3.91-4.91l2.49-14.32c.56-3.09,1.68-4.9,5.68-4.9s4.43,1.81,3.87,4.9Zm-6.75-1.59h4.55l1-6c.38-2.06-.22-2.66-1.81-2.66s-2.36.6-2.75,2.66Z"/><path class="cls-1" d="M175.68,64.64a.71.71,0,0,1-.76.65h-1.21c-.43,0-.61-.22-.52-.65l.9-5.25c.39-2.06,0-2.66-1.59-2.66s-2.62.82-3,2.88l-3.23,18.15a.68.68,0,0,1-.72.64h-1.22c-.42,0-.64-.21-.55-.64l4-22.41a.72.72,0,0,1,.78-.64h1.2c.43,0,.6.21.52.64l-.13.73a6.47,6.47,0,0,1,4-1.59c1.8,0,3.13,1.12,2.71,3.66Z"/><path class="cls-1" d="M180.59,78.62c-4,0-4.48-1.81-3.92-4.91l.56-3.14a.66.66,0,0,1,.68-.64h1.26c.43,0,.6.21.56.64l-.56,3.14c-.39,2.07.21,2.67,1.8,2.67s2.37-.6,2.76-2.67c.51-3.09.25-3.27-1-4.94l-2.53-3.14c-1-1.25-1.64-2.45-1-6.24.56-3.09,1.68-4.9,5.67-4.9s4.43,1.81,3.87,4.9l-.51,3.14a.73.73,0,0,1-.78.65h-1.2c-.43,0-.6-.22-.52-.65l.52-3.14c.39-2.06-.22-2.66-1.81-2.66s-2.36.6-2.75,2.66c-.51,3.1-.26,3.27,1,5l2.54,3.14c1,1.25,1.63,2.45,1,6.23C185.66,76.81,184.59,78.62,180.59,78.62Z"/><path class="cls-1" d="M201.53,65.24l-2.19,12.52a.69.69,0,0,1-.74.64h-1.37c-.43,0-.65-.21-.56-.64L202,47.91a.64.64,0,0,1,.66-.64h4.24c5.68,0,6.28,2.58,5.5,6.92l-.73,4.13c-.77,4.39-2.28,6.92-7.95,6.92Zm2.58-2.41c3.44,0,4.34-1.63,4.86-4.51l.73-4.13c.47-2.84.17-4.51-3.27-4.51h-2.15L202,62.83Z"/><path class="cls-1" d="M220.32,77.76a.68.68,0,0,1-.72.64h-1.21c-.43,0-.65-.21-.56-.64L218,77a6.37,6.37,0,0,1-4,1.6c-1.81,0-3.18-1.12-2.71-3.66l3-16.81a4,4,0,0,1,4-3.66,4.47,4.47,0,0,1,3.39,1.59l.13-.73a.72.72,0,0,1,.78-.64h1.2c.43,0,.6.21.52.64ZM214,73.71c-.39,2.07,0,2.67,1.59,2.67s2.62-.82,3-2.88L221,59.61c.34-2.06-.43-2.88-2-2.88s-2.15.6-2.54,2.66Z"/><path class="cls-1" d="M232.66,81.5c-.6,3.48-1.85,5.5-6.36,5.5h-1.81c-.43,0-.6-.21-.51-.64l.17-1a.67.67,0,0,1,.71-.65h1.82c2.41,0,3.1-1.2,3.49-3.26l.77-4.48a6.35,6.35,0,0,1-3.95,1.6c-1.81,0-3.19-1.12-2.71-3.66l3-16.81a4,4,0,0,1,4-3.66,4.51,4.51,0,0,1,3.4,1.59l.13-.73a.71.71,0,0,1,.77-.64h1.21c.43,0,.6.21.51.64ZM227,73.71c-.39,2.07,0,2.67,1.59,2.67s2.62-.82,3-2.88L234,59.61c.34-2.06-.43-2.88-2-2.88s-2.15.6-2.54,2.66Z"/><path class="cls-1" d="M248.18,67a.67.67,0,0,1-.69.65h-6.44L240,73.71c-.39,2.07.22,2.67,1.81,2.67s2.36-.6,2.75-2.67l.3-1.85a.71.71,0,0,1,.77-.64h1.21c.43,0,.6.21.52.64L247,73.71c-.56,3.1-1.63,4.91-5.63,4.91s-4.47-1.81-3.91-4.91L240,59.39c.56-3.09,1.68-4.9,5.68-4.9s4.43,1.81,3.87,4.9Zm-6.75-1.59H246l1-6c.39-2.06-.21-2.66-1.8-2.66s-2.37.6-2.75,2.66Z"/><path class="cls-1" d="M55.8,84.76H220.14c.43,0,.6.22.52.65l-.18.94a.67.67,0,0,1-.71.65H55.41"/><path class="cls-1" d="M57.88,87H50.82q-.65,0-.51-.6l.21-1a.65.65,0,0,1,.67-.61H66.82"/></g><g id="powered"><path class="cls-2" d="M172.53,36.3l2.88-12.89h5a3.64,3.64,0,0,1,3.66,3.64h0a4.9,4.9,0,0,1-4.8,5h-2.54l-1,4.46Zm8.29-9.24a1.14,1.14,0,0,0-1.09-1.17H178l-.7,3H179a1.78,1.78,0,0,0,1.83-1.73v-.1Z"/><path class="cls-2" d="M184.07,31.37A7.61,7.61,0,0,1,190.84,23h0a5,5,0,0,1,5.23,4.63,5.23,5.23,0,0,1,0,.56,7.61,7.61,0,0,1-6.79,8.33h0a5,5,0,0,1-5.22-4.7A3.38,3.38,0,0,1,184.07,31.37Zm8.77-3.07a2.19,2.19,0,0,0-1.92-2.43h-.24c-2,0-3.36,2.92-3.36,5.44a2.19,2.19,0,0,0,1.92,2.43h.24c2,0,3.36-3,3.36-5.44Z"/><path class="cls-2" d="M203.69,36.3l.25-7.81-3.21,7.81h-3.25v-13h3.32l-.33,8.26,3.66-8.26h2.26v8.26l3.29-8.26h3.43l-5.92,13Z"/><path class="cls-2" d="M211.07,36.3l2.85-13h7.89l-.59,2.7h-4.71L216,28.3h4.6l-.6,2.78h-4.6l-.55,2.48h4.71L219,36.3Z"/><path class="cls-2" d="M226.92,36.3l-.77-4.45h-1.31l-1,4.45H220.7l2.85-12.89h4.75A3.64,3.64,0,0,1,232,27v.07a4.76,4.76,0,0,1-3,4.5l1.09,4.85Zm2-9.06a1.17,1.17,0,0,0-1.1-1.24h-1.7l-.66,3h1.68a1.75,1.75,0,0,0,1.79-1.71h0Z"/><path class="cls-2" d="M232,36.3l2.89-13h7.85l-.62,2.7h-4.71l-.52,2.26h4.61L240.88,31h-4.61l-.54,2.48h4.71l-.59,2.74Z"/><path class="cls-2" d="M241.61,36.3l2.85-13H249A4.8,4.8,0,0,1,253.9,28v.37a7.31,7.31,0,0,1-6.55,8h0a7.53,7.53,0,0,1-1,0Zm3.65-2.74h1.32c2.44,0,3.65-2.74,3.65-5.11a2.12,2.12,0,0,0-1.81-2.39h-1.63Z"/><path class="cls-2" d="M257.72,36.3l2.88-13h5.26a3.16,3.16,0,0,1,3.62,2.59,3.84,3.84,0,0,1,0,.48,3.65,3.65,0,0,1-2.93,3.47,2.55,2.55,0,0,1,1.79,2.56,3.89,3.89,0,0,1-3.78,4h-.42ZM265,32a1,1,0,0,0-1.09-1h-2l-.54,2.48h2.12a1.45,1.45,0,0,0,1.56-1.33h0V32Zm.92-5.08a1,1,0,0,0-1-.92h-1.87l-.51,2.26h2.26a1.27,1.27,0,0,0,1.2-1.2Z"/><path class="cls-2" d="M271.49,36.3l1.17-5.3-2.38-7.6h3.33l1.13,4.86L278,23.41h3.66L275.8,31l-1.17,5.29Z"/><path class="cls-3" d="M282.17,54.38c0-.11.09-.17.15-.24a6.63,6.63,0,0,0,.81-1.1c.14-.26.18-.44.58-.54h.22c.09,0,.14-.17.18-.22a2.3,2.3,0,0,0,.44-.63c.22-.42.49-.66.53-1.06a.49.49,0,0,1,0-.17c.07-.16.15-.32.23-.47a2,2,0,0,0,.17-.48v-.34a3.68,3.68,0,0,1,.08-.41c0-.14,0-.17.13-.2s0-.36-.05-.45-.15,0-.18-.08a.43.43,0,0,1,0-.16.45.45,0,0,0-.12-.39c-.12-.09,0,.22-.15.08s-.13-.18.08-.18c-.07-.07-.11,0-.19-.1s0-.53-.28-.27a.27.27,0,0,0-.13-.13c-.08,0-.14-.12-.24-.17l-.23-.06c-.09,0-.13.14-.2.17s-.1,0-.19,0l-.21,0h-.2c-.09,0-.16.08-.2.08s-.18-.07-.27-.08a3.26,3.26,0,0,0-.38.06,1.78,1.78,0,0,0-.39.07c.14.09.38,0,.54,0-.17.26-.42,0-.66.2a.1.1,0,0,1-.06.08c-.06,0-.17,0-.23.09l-.12.07s.07,0,0,.09-.33,0-.46.17c.12,0,.23-.14.35-.07s-.13.11-.2.16-.12.14-.2.17h-.24c-.1,0-.06.08-.12.14a.81.81,0,0,0-.25.27v.09a2.5,2.5,0,0,0-.23.39v.24a.32.32,0,0,1-.06.23.86.86,0,0,1-.06.23c0,.06-.08.12-.1.18a1.79,1.79,0,0,0,0,.33c0,.12-.13.35-.13.43s.09.12.11.2-.07.18-.07.29.06.16.06.24v.21s.15.18.17.28c0,.29-.55.64-.88.63-.15,0-.21-.08-.37-.12s-.17,0-.27,0S278.2,52,278,52s-.58-.11-.89-.19-.82-.4-1.2-.53a3.3,3.3,0,0,0-.76-.15,5.08,5.08,0,0,0-.78,0,6.21,6.21,0,0,0-1.8.42c-.29.11-.64.32-1,.43s-.78.2-1.19.34l-.46.17a3,3,0,0,0-.6.18.37.37,0,0,0-.17.24.45.45,0,0,1-.07.29c-.07.09-.27.12-.42.19l-.43.19c-.51.23-1.06.31-1.6.56s-.82.48-1.25.72-.92.42-1.36.66-.81.5-1.18.75a6.93,6.93,0,0,1-1.18.75,3.22,3.22,0,0,0-.44.14,2.35,2.35,0,0,0-.33.3,5.4,5.4,0,0,1-1.29.76,3.87,3.87,0,0,0-.79.39c-.2.16-.4.4-.6.58a2.23,2.23,0,0,0-.43.49c-.12.19-.22.38-.35.6a1.92,1.92,0,0,0-.18.31v.21c0,.09-.16.44-.05.54s.17,0,.23,0,.15-.44.37-.56v.38c0,.1-.15.57,0,.64a.26.26,0,0,0,.24-.06.83.83,0,0,0,.16-.36.71.71,0,0,1,.13-.34s.06-.11.09-.15a2.21,2.21,0,0,1,.48-.57,2.16,2.16,0,0,1,.25-.27,1.59,1.59,0,0,1,.3-.06c.43-.13.69-.31.85.08a.92.92,0,0,1-.14.77c-.1.17-.28.31-.34.5s0,.61.26.58.32-.31.42-.49.13-.18.17-.26,0-.22.09-.3.05,0,.06-.06a3.36,3.36,0,0,1,.27-.36l.09-.24.09-.21a3.42,3.42,0,0,0,.25-.95,1,1,0,0,1,.16-.44,4,4,0,0,1,.95-.34l.92-.29a20.39,20.39,0,0,0,3.94-1.43,3.79,3.79,0,0,1,.94-.53,5.2,5.2,0,0,1,.88-.14l.3-.06c.12,0,.24.19.34.2l.34-.1.33-.07a4.6,4.6,0,0,0,.64-.16h.33a3.13,3.13,0,0,0,.4-.12,2.47,2.47,0,0,1,.36-.11c.09,0,0,.48,0,.57a1.31,1.31,0,0,1,0,.28,1.13,1.13,0,0,1-.08.24,3.25,3.25,0,0,1-.35.39c-.06.08-.11.19-.16.27s-.26.37-.44.61a2.23,2.23,0,0,1-.35.4,5.64,5.64,0,0,0-.67.4,3.56,3.56,0,0,0-.49.46,3.17,3.17,0,0,1-.76.7,1.84,1.84,0,0,0-.38.17,1.48,1.48,0,0,0-.23.53,1.23,1.23,0,0,0-.1.42v.24a2.88,2.88,0,0,1-.34.27,7,7,0,0,0-.67.55,2.24,2.24,0,0,1-.33.36,5.09,5.09,0,0,1-.71.42,13.5,13.5,0,0,0-2,1.27,16.62,16.62,0,0,1-2,1.64,1.58,1.58,0,0,0-.36.2,1.6,1.6,0,0,0-.23.4,2.17,2.17,0,0,0-.3.68,1.42,1.42,0,0,0,0,.71c0,.14.21.33.22.5s-.14.31-.17.45a3.85,3.85,0,0,0-.2.57,2.34,2.34,0,0,0,.09.38v.32s-.1.4-.14.64a3.64,3.64,0,0,0,0,.66,4.65,4.65,0,0,1-.22,1.11v.16s-.14.15-.19.25a1.22,1.22,0,0,1-.13.28c-.06.06-.14.08-.21.14s0,.1,0,.13-.1,0-.11.08a1.07,1.07,0,0,0,0,.18c0,.06-.06.41-.09.62a.61.61,0,0,1,0,.19,2.77,2.77,0,0,1-.26.48,2.7,2.7,0,0,0-.19.63,1.35,1.35,0,0,0-.06.93.75.75,0,0,0,.28.28,1.26,1.26,0,0,0,.77-.06,2.35,2.35,0,0,0,.29-.26,2.23,2.23,0,0,0,.49-.69v-.13s.07,0,.08-.09,0-.16.06-.23a1.15,1.15,0,0,1,.14-.17,3,3,0,0,1,.85-.77c.13-.08.29-.15.43-.25a2.18,2.18,0,0,0,.58-.63.5.5,0,0,0,.08-.27c0-.22-.18-.26-.29-.36s-.07-.08-.14-.14-.16-.1-.16-.12a1.22,1.22,0,0,1,.25-.39c.13-.12.29-.16.43-.28a2.42,2.42,0,0,0,.31-.33,2.71,2.71,0,0,1,.21-.37,2.94,2.94,0,0,0,.16-.65c0-.11-.09-.64,0-.74a2,2,0,0,1,.59-.14,2.94,2.94,0,0,0,.58-.16,2.09,2.09,0,0,0,.46-.26c.07-.07.09-.15.16-.21s.23-.13.35-.22.33-.3.6-.5.42-.39.36,0a1.34,1.34,0,0,1-.2.46c-.2.34-.33.55-.51.9a1.09,1.09,0,0,1,0,.17c-.09.17-.19.38-.3.58a.64.64,0,0,0-.1.13c-.08.14-.19.37-.33.59s-.13.19-.19.28A6.42,6.42,0,0,1,265,72a1.5,1.5,0,0,0-.38.61,3,3,0,0,1,0,.6c-.06.22-.22.46-.32.71s-.1.23-.15.35a2.32,2.32,0,0,1-.13.37c0,.1-.17.21-.25.33a2.27,2.27,0,0,1-.19.34c-.07.08-.18.12-.25.19a5.32,5.32,0,0,0-1.1,1.56,11.63,11.63,0,0,1-1.59,2.81,9.93,9.93,0,0,1-1.08.86,1.9,1.9,0,0,0-.37.26,2.1,2.1,0,0,0-.26.33,2.27,2.27,0,0,1-.32.3,6.71,6.71,0,0,1-.86.51,7.14,7.14,0,0,0-.93.71,2.3,2.3,0,0,0-.33.21c-.31.28-.65,1.07-.08,1.47a2.27,2.27,0,0,0,1,.13h.33a2.54,2.54,0,0,0,1.21-.5,3,3,0,0,0,.38-.23,5.19,5.19,0,0,0,.36-.46,10.63,10.63,0,0,1,1.15-1.27,2.79,2.79,0,0,0,.44-.4.12.12,0,0,1,.07-.11c.21-.23.41-.52.61-.77a10.16,10.16,0,0,1,1.33-1.21A11,11,0,0,0,265,78.14c.12-.14.22-.29.33-.44s.24-.3.33-.45.1-.32.19-.49.2-.24.23-.32a1.5,1.5,0,0,0,.06-.29v-.28c0-.05.11-.08.15-.14s.21-.37.34-.43a.69.69,0,0,1,.53.09.83.83,0,0,0,.54,0c.17-.06.24-.22.38-.32a1.83,1.83,0,0,1,.29-.14,1.69,1.69,0,0,0,.31-.21c.06-.06.07-.15.13-.25a18.55,18.55,0,0,1,1.2-1.7,43.32,43.32,0,0,0,2.67-3.9c.25-.42.57-1,.92-1.49A2.86,2.86,0,0,1,274,67a1.62,1.62,0,0,1,.44,0,1.14,1.14,0,0,0,.45-.06,1.27,1.27,0,0,0,.32-.47,4,4,0,0,1,.24-.83,1.79,1.79,0,0,1,.27-.28c.17-.11.47-.16.66-.28a6.51,6.51,0,0,0,.79-.69,9,9,0,0,1,.83-.67c.2-.14.42-.25.64-.39s.7-.51,1.05-.78l.49-.4c.16-.13.3-.3.46-.41s.47-.23.68-.35.4-.25.59-.37A16.52,16.52,0,0,0,284,59.35c.25-.22.49-.43.72-.66.07-.08.17-.14.24-.21.29-.3.52-.65.78-.95s.28-.31.4-.47.23-.32.34-.49a5.56,5.56,0,0,1,.75-1c.16-.14.34-.27.52-.4s.25-.21.37-.32.69-.42,1.06-.7c.11-.09.26-.2.4-.33l.16-.18c.16-.12.25-.06.13-.28,0,0-.1-.1-.1-.17a3.35,3.35,0,0,1,.43-.49c.51-.49,1.06-.89,1.51-1.34a7.25,7.25,0,0,0,.75-1,11.12,11.12,0,0,0,.69-1c.54-.88,1.07-1.78,1.56-2.68.15-.28.31-.54.48-.8.06-.08.1-.19.16-.27s.34-.27.48-.44a3.55,3.55,0,0,0,.21-.44,2.22,2.22,0,0,1,.29-.46c.13-.13.28-.23.42-.37l.35-.37c.13-.12.25-.23.4-.35s.22-.26.35-.38.39-.26.59-.37.79-.55,1.11-.78c.07,0,.47-.27.42-.42-.1-.33-.64.12-.79.21l-.3.15a1.62,1.62,0,0,1-.8.36c0-.08.08-.11.12-.16a4.72,4.72,0,0,1,.37-.41c.16-.15.35-.33.53-.52s.35-.37.49-.54.39-.49.29-.64-.51.11-.6.2a3.11,3.11,0,0,0-.2.25c-.24.28-.61.52-.86.8a.92.92,0,0,1-.4.33.84.84,0,0,1,.16-.33c.28-.39.58-.78.86-1.2,0,0,.05-.1.09-.16s.18-.26.29-.46.14-.26.11-.33a.32.32,0,0,0-.42,0,1.31,1.31,0,0,0-.25.33,10,10,0,0,1-.82,1v.1c-.16.18-.29.38-.45.59,0,0-.22.3-.31.26s.12-.5.18-.66c.19-.45.25-.73.4-1.17a.11.11,0,0,1,.06-.09c.06,0,0,0,0-.08s.23-.58.06-.7-.34.08-.44.23A2.1,2.1,0,0,0,297,39c-.12.33-.3.67-.41.92a4.17,4.17,0,0,1-.75,1.31,1.43,1.43,0,0,1-.47.33c-.26,0-.66-.29-.79-.55s-.08-.71-.22-1-.48-.56-.69-.26a4.21,4.21,0,0,0,.12,1c0,.17.12.31.14.44a3.05,3.05,0,0,0,.08.65,5.06,5.06,0,0,0,.17.67,3.56,3.56,0,0,1,.33,1c0,.23-.18.32-.34.51s-.23.38-.33.51l-.1.13c-.19.25-.47.55-.68.82-.48.6-1.1,1.27-1.63,1.85l-.82.93c-.42.49-.73.93-1.11,1.46-.06.08-.11.17-.17.24a8.89,8.89,0,0,1-1,.84c-.2.15-.28.24-.42.13s-.06-.1-.12-.1-.12.1-.23.17c-.57.38-1.35.74-1.87,1.1-.15.11-.28.24-.45.35-.47.3-1.24.59-1.64.92-.11.09-.19.2-.3.29a1.9,1.9,0,0,1-.37.26A4,4,0,0,1,282.17,54.38Z"/><path class="cls-3" d="M46.8,69.54c.06-.21,0-.17-.17-.24a1.56,1.56,0,0,0-.6-.15,1.6,1.6,0,0,0-.59.24,3.1,3.1,0,0,1-.57.3h-.22l-.15.1-.17.1s-.13,0-.17.07a.31.31,0,0,1-.15.13.54.54,0,0,0-.18,0v.07h0a1.51,1.51,0,0,1-.28.15l-.17.07h-.22c-.07,0-.11.08-.17.1a.89.89,0,0,0-.23,0c-.07,0-.15.06-.22.07s-.14-.06-.2,0l-.07,0H41.8a4.93,4.93,0,0,1-.57-.07c0,.11.09.17,0,.25a4.11,4.11,0,0,1-1.86-.35L38.1,70a20.38,20.38,0,0,1-2.24-1c-.65-.32-1.46-.75-2.18-1.11-.32-.16-.71-.33-1.08-.56s-.46-.39-.7-.55c-.09-.06-.22-.17-.24-.17s-.15.09-.2.07-.15-.19-.22-.27a2.4,2.4,0,0,0-.84-.67l-.72-.29a2.45,2.45,0,0,0-.79-.22h-.44c-.14,0-.15-.07-.25-.1l-.55-.2c-.18-.06-.23-.05-.27-.1a1.65,1.65,0,0,1-.07-.32c-.06-.33-.09-.64-.37-.69s-.25,0-.37.07a10.15,10.15,0,0,1-1.56,0,3.93,3.93,0,0,1-.84,0v-.28a2.25,2.25,0,0,1-.08-.24,1.56,1.56,0,0,1,.15-.52c.06-.16.15-.44.22-.47a2.78,2.78,0,0,1,.5,0A1.17,1.17,0,0,0,26,62a3.24,3.24,0,0,0,.17-.32c.07-.09.21-.2.3-.32s.15-.3.25-.37.24,0,.32,0,0-.06.07-.08a.22.22,0,0,1,.12,0,1.69,1.69,0,0,0,.45-.64,4.7,4.7,0,0,0,.39-.69c.06-.13.07-.29.13-.42a2.62,2.62,0,0,1,.17-.27,4.83,4.83,0,0,0,1-2.25A3,3,0,0,0,27.83,54l-.45-.3s-.13,0-.17-.07a3.18,3.18,0,0,0-.37-.37,8.61,8.61,0,0,0-.74-.74l-.22-.15a.64.64,0,0,1-.15-.25c0-.11.46-.11.57-.1a5.38,5.38,0,0,0,.79.2,1.17,1.17,0,0,0,.37-.08.53.53,0,0,0,.22-.27,1,1,0,0,1,.05-.37c.05-.12.17-.14.22-.22s0-.14,0-.2S28,51,28,51a2.3,2.3,0,0,0,.08-.27c0-.11.06-.13.2-.13.35,0,.36-.23.29-.52a1.65,1.65,0,0,0-.07-.32c0-.1-.19-.6-.08-.76s.09-.07.15-.1a1,1,0,0,0,.3-.52,6.63,6.63,0,0,1,0-1,.64.64,0,0,1,.1-.13c0,.07-.06.11,0,.12s.08,0,.13-.14,0-.05,0-.07h0v-.06a.54.54,0,0,1,0,.18c0,.09-.1.14-.09.16a.21.21,0,0,0,.11-.08v.1a.4.4,0,0,0,.14-.22h0v.26a.57.57,0,0,0,.07-.34,1.13,1.13,0,0,0-.06-.36,1.07,1.07,0,0,0-.07-.19h0l-.09-.17L29,46.05v-.13a1.34,1.34,0,0,0-.5-.58h0a1.12,1.12,0,0,0-.18-.2A1,1,0,0,0,28,45h-.06a1.55,1.55,0,0,0-.55-.22l-.25-.11a1.06,1.06,0,0,0-.56,0,2.85,2.85,0,0,0-.51-.2,1.23,1.23,0,0,0-.54,0,1,1,0,0,0-.32.15.86.86,0,0,0-.39,0,1.21,1.21,0,0,0-.47.23,1.86,1.86,0,0,0-.37.42,2,2,0,0,0-.45.36.73.73,0,0,0-.19.3,2.2,2.2,0,0,1,.24-.24,3.15,3.15,0,0,1,.29-.22h0l-.15.12a.57.57,0,0,0-.19.24h0a2,2,0,0,0-.24.33.49.49,0,0,0-.06.29,2,2,0,0,1,.13-.25.36.36,0,0,1,.07-.1l-.08.12a1.69,1.69,0,0,0-.13.31,1.37,1.37,0,0,0-.16.32.73.73,0,0,0,0,.46,2.18,2.18,0,0,1,.11-.44V47a1.48,1.48,0,0,0-.14.42.61.61,0,0,0,0,.27h0a2.42,2.42,0,0,0-.1.45.77.77,0,0,0,0,.37v-.32L23,48a1.22,1.22,0,0,0,0,.27h0v.1a.76.76,0,0,0,0,.3v-.07a.54.54,0,0,0,0,.18,1.28,1.28,0,0,0,.1.47v-.28a1,1,0,0,0,.12.42,2.37,2.37,0,0,0-.05-.42v-.21a2.29,2.29,0,0,1,0,.37v.12a3,3,0,0,1,.05.6,1.89,1.89,0,0,1-.42.69,1.44,1.44,0,0,1-.42.27H22c-.11,0-.23.12-.34.15a2.7,2.7,0,0,0-.5.07l-.47.1a5.74,5.74,0,0,1-.91.22,14.22,14.22,0,0,1-1.46,0A4.57,4.57,0,0,0,15.64,53c-.35.41-.63.81-1,1.19a7.85,7.85,0,0,1-.84.79c-.13.1-.27.18-.3.25s.06.31,0,.44a7.87,7.87,0,0,1-1,1,5.57,5.57,0,0,0-.57.52l-.17.25a5.45,5.45,0,0,0-.37.47c-.11.18-.19.39-.3.59s-.23.38-.34.57c-.25.41-.53.91-.74,1.31-.3.56-.58,1.14-.87,1.65a5.29,5.29,0,0,0-.44.77,4.36,4.36,0,0,0-.2.79q-.12.58-.27,1.11a4.56,4.56,0,0,0-.18.52,6.29,6.29,0,0,0,.15,1.06.77.77,0,0,0,.05.37,2.89,2.89,0,0,0,.37.3l.18.15a1.37,1.37,0,0,1,.17.17A.25.25,0,0,0,9,67.4a.39.39,0,0,1,.1.15s.07.28.22.27.15-.13.2-.32c.08,0,.1,0,.15,0a.11.11,0,0,0,.12-.07c0-.07-.13-.28-.19-.42.4-.07.22-.32-.1-.4s-.39,0-.35-.27a1.31,1.31,0,0,0,.52-.07c.13,0,.21,0,.22-.13S10,66,9.92,66s-.26.06-.35,0a.72.72,0,0,1-.32-.25c-.09-.18,0-.23.08-.44a1.7,1.7,0,0,1,.1-.32.43.43,0,0,1,.46-.18c.27,0,.35.47.45.77s.17.74.49.72.26-.29.23-.5-.23-.48-.33-.84a2.11,2.11,0,0,0-.09-.49,5.16,5.16,0,0,0-.13-.5,2.09,2.09,0,0,0-.27-.39l-.12-.2c-.07-.08-.16-.14-.15-.2a2.16,2.16,0,0,1,.25-.27c.27-.29.59-.57.84-.79A16.1,16.1,0,0,0,13.15,60a5.74,5.74,0,0,0,.62-1,2.53,2.53,0,0,1,.18-.37,1.6,1.6,0,0,1,.27-.25,5.08,5.08,0,0,1,.57-.47,1,1,0,0,1,.32-.2c.11,0,.21.07.32,0s.14-.1.24-.17c.43-.33.78-.64,1.17-1,0,0,.42-.41.49-.37a2.15,2.15,0,0,1,.07.62,4.49,4.49,0,0,1-.19,1.41,1.36,1.36,0,0,1-.13.39,1.49,1.49,0,0,0,0,.3l-.17,0a3,3,0,0,0-.67-.07,2.29,2.29,0,0,0-.37.12c-.29.09-.52.14-.76.22a1.63,1.63,0,0,0-.37.13c-.19.12-.25.54-.32.79a1,1,0,0,0-.08.29c0,.23.3.29.35.45s0,.21,0,.32a.34.34,0,0,0,.22.2,1,1,0,0,1,.25,0l.1.07.12.08c.1,0,.17-.05.23,0s.1.12.17.15.13,0,.2,0,.45.14.54.08,0-.2,0-.22v-.1s-.13-.17-.12-.25.09-.1.12-.12c.38-.25.09.37,0,.66a1.64,1.64,0,0,0,0,.67c0,.11-.05.21-.07.32,0,.32.17.48.27.72l.1.22a.77.77,0,0,1,.1.25c0,.06-.12.06-.17.09a.53.53,0,0,0-.18.28v.12a.41.41,0,0,1-.07.27,2.33,2.33,0,0,0-.22.42,2.38,2.38,0,0,0-.15.52A6,6,0,0,0,16,66.76a3.35,3.35,0,0,0,.77,2.1,5,5,0,0,0,.89,1c.1.09.29.18.34.27a1.77,1.77,0,0,1,.08.4,1.32,1.32,0,0,0,.05.44,23.73,23.73,0,0,1,.34,3.14c0,.12-.07.34,0,.44s.3.1.45.13a1.61,1.61,0,0,1,.49.07c.05,0,.05.21.07.35.07.34.21.89.23,1.11a3.23,3.23,0,0,1,0,.44,1.5,1.5,0,0,1-.52.57h-.25l-.15.1a1.51,1.51,0,0,0-.42.45,7.35,7.35,0,0,0-1.23,1.88,5.5,5.5,0,0,0-.2,1.06,11.59,11.59,0,0,1-.54,2,7.75,7.75,0,0,1-.35.91,4.53,4.53,0,0,1-.39.87c-.05,0-.08-.06-.13,0a.68.68,0,0,1-.12.12c-.05,0-.18.2-.27.27s-.13.06-.18.1a1.85,1.85,0,0,0-.19.27,1.89,1.89,0,0,0-.32.67v.45c0,.14-.14.2-.13.29s.23.22.3.37,0,.16,0,.2.15,0,.25,0,.17.11.29.18l.32.17c.09.07.07.14.18.17s0,0,.09,0a.15.15,0,0,1,.13,0,2.43,2.43,0,0,1,.54.17,5.36,5.36,0,0,1,1,.47,2,2,0,0,1,.54.42A.13.13,0,0,0,18,89c.08,0,.13,0,.19,0a.84.84,0,0,1,.18.15l.12.1c0,.06.09,0,.2.07h.12a.44.44,0,0,1,.3.07c.08.07.12.1.15.1a.81.81,0,0,1,.22,0h.3c.08,0,.13.06.17,0s0,0,.05-.08.06,0,.1,0a1.39,1.39,0,0,0,.34-.12c.23-.17.18-.38.1-.6a2,2,0,0,0-.67-.79,3,3,0,0,0-.44-.29c-.07,0-.17-.08-.25-.13a1.8,1.8,0,0,1-.19-.2c-.16-.13-.31-.24-.45-.37s0-.09-.07-.12h-.08c-.1-.06-.05-.13-.12-.2h-.08c-.08,0-.06-.11-.12-.17s-.11-.07-.12-.1a.46.46,0,0,1-.08-.34h-.17c-.14,0-.14-.33-.07-.56a.88.88,0,0,1,.1-.22.85.85,0,0,1,.09-.22c.37-.75.7-1.55,1.12-2.23.16-.27.37-.53.54-.79.37-.56.67-1.08,1-1.65A8.73,8.73,0,0,1,21,79.5c.14-.18.32-.36.45-.54a1.43,1.43,0,0,0,.14-.2c0-.07-.06-.17-.05-.19s.12-.08.18-.13a3,3,0,0,0,.52-.49c.11-.18.19-.44.32-.72a2.53,2.53,0,0,0,.24-.81c0-.22,0-1.48.35-1.66h.37a1.24,1.24,0,0,0,.52-.18c.05-.1-.06-.3-.08-.42-.06-.48,0-1.25-.07-1.87v-.62c0-.18-.07-.55,0-.62a2.08,2.08,0,0,1,.61,0,11.73,11.73,0,0,1,2.13-.2c.34.06.32-.1.42-.37a6,6,0,0,0,.29-.94c0-.16,0-.46.1-.52h.3a6.64,6.64,0,0,1,1-.1,1.55,1.55,0,0,1,1.19.45c.13.11.3.21.34.32a.61.61,0,0,1,0,.27c0,.08.09.11.12.15a2.59,2.59,0,0,0,.55.44c.13.11.28.22.42.32a6.92,6.92,0,0,0,1.9,1,9.15,9.15,0,0,0,1.28.17,16.24,16.24,0,0,1,2.37.54,15.43,15.43,0,0,1,2,.62c.22.08.29.07.25.2s.13.19.22.29l.2.25c.06.09,0,.17.1.22v.08a3.67,3.67,0,0,0,1.26.91h.17s.11.17.18.17.23-.19.29-.19h.13s.36-.16.3-.27-.08-.12-.06-.18l.25-.22c.08-.08.14-.21.25-.22s.15.1.24.07a.23.23,0,0,0,.18-.23c0-.13-.09-.17-.08-.21a2.73,2.73,0,0,1,.25-.23c.57-.5,1.2-.91,1.78-1.35.06,0,.11-.1.15-.1s.1.07.12.07a.2.2,0,0,0,.15,0c.11-.11-.06-.15,0-.27a4.47,4.47,0,0,1,.45-.42s.1.1.13.07c.24-.15.06-.19.09-.34s.13-.16.2-.25a1.31,1.31,0,0,1,.19-.27h.25s-.08-.14-.07-.28a.67.67,0,0,1,.15-.29s.16,0,.22,0-.08-.12-.08-.27A1,1,0,0,1,46.8,69.54ZM15.18,61c0-.12.07-.22.17-.18s0,.19.08.28S15.19,61,15.18,61ZM28.86,45.84l-.17-.14-.06-.11A2.73,2.73,0,0,1,28.86,45.84Zm-.48-.42.1.11h0l-.26-.19Zm-.6-.37Zm-.41-.22Zm-.46-.17h0Zm-1.37-.19a1.24,1.24,0,0,1,.47,0,1.08,1.08,0,0,0-.43.1h-.07l-.11,0Zm-1.14.35a1,1,0,0,1,.4-.18l-.18.1-.23.16a.41.41,0,0,0-.11.07h-.09A.8.8,0,0,1,24.4,44.82Zm-1.08,1.59Zm-.29.9a.19.19,0,0,1,.07-.17v.12a1.48,1.48,0,0,0-.12.29,1.87,1.87,0,0,0,0-.24Zm0,.4Z"/></g><g id="Layer_1-2" data-name="Layer 1"><g id="Ebene_1" data-name="Ebene 1"><path class="cls-2" d="M12.17,11.48h0L21.94,0h7.93L17.46,15.28,24.9,30.65H16.32l-5.23-12h0l-2.23,12H1.62L7.37,0h7Z"/><path class="cls-2" d="M32.85,30.65h-6.2l4-21.46h6.2ZM37.56,5.4h-6.2l1-5.4H38.6Z"/><path class="cls-2" d="M55.35,22.06c-.8,4-1.86,6.19-3.55,7.44s-4,1.38-7.35,1.38c-7.45,0-8.62-2.53-7-10.93,1.38-7.22,3.33-11,11.17-11,5.58,0,9.08.69,7.7,8.27H50.18c.22-1.14.22-1.86-.13-2.29s-1-.58-2.4-.58c-2.18,0-3,.69-3.91,5.59s-.58,5.58,1.86,5.58c2.87,0,3.09-.8,3.72-3.44l6.2.13Z"/><path class="cls-2" d="M65.46,17.24h0l5.75-8h6.42L70.06,20l4.48,10.66H67.41l-3-8.72h0l-1.6,8.72H56.62L62.37,0h6.2Z"/><path class="cls-2" d="M84.18,23.08H93l-.65,3H83.68L81,40.05H77.87L83.68,9.31h16.75l-.57,3.09H86.25Z"/><path class="cls-2" d="M105.31,18.26c7.13,0,8.17,1.86,6.44,11s-3.44,10.9-10.57,10.9S93,38.25,94.85,29.28,98.2,18.26,105.31,18.26Zm-3.72,19.3c5.17,0,5.58-.93,7.11-8.39s1.15-8.38-3.89-8.38-5.59.91-7,8.38-1.32,8.39,3.85,8.39Z"/><path class="cls-2" d="M119.68,18.48l-.63,2.65v.11a6.58,6.58,0,0,1,6-3c3.72,0,5,2.06,4.15,6.09L128.8,26H126l.33-1.38c.47-2.63-.11-3.56-2.51-3.56-3.57,0-5.06,2-5.75,5.75l-2.51,13.31h-2.89l4-21.46A25.2,25.2,0,0,1,119.68,18.48Z"/><path class="cls-2" d="M135.29,21.81h0a7.11,7.11,0,0,1,6.56-3.55c2.29,0,5,.69,5.15,3.55a8,8,0,0,1,7.24-3.55c4.93,0,6.2,2.29,5.18,7.57L156.77,40h-2.88l2.64-13.77c.69-3.72.47-5.29-3.2-5.29-4,0-5.75,1.27-6.66,6l-2.53,13.19h-2.87L144,25.72c.47-2.86.8-4.71-3.33-4.71-3.72,0-5.58,1.86-6.31,6.2L132,40.07h-2.9l4-21.46H136Z"/><path class="cls-2" d="M162.17,35.94a2.24,2.24,0,0,1,.06,4.48h-.06a2.33,2.33,0,0,1-2.31-2.31,2.22,2.22,0,0,1,2.25-2.18Zm0,.35A1.73,1.73,0,0,0,160.43,38v.18A1.85,1.85,0,0,0,162.3,40a1.72,1.72,0,0,0,1.7-1.69v-.15a2,2,0,0,0-1.86-1.87Zm-.46,3.09h-.47V37.09c.24,0,.47-.11.8-.11a1,1,0,0,1,.69.23.56.56,0,0,1,.24.46c0,.23-.24.45-.46.58h0a.53.53,0,0,1,.35.56c.11.35.11.46.22.57h-.46c-.11-.11-.11-.33-.23-.57a.51.51,0,0,0-.57-.34h-.23Zm0-1.37H162c.35,0,.58-.11.58-.34s-.11-.35-.58-.35h-.33Z"/><polygon class="cls-2" points="73.17 39.96 0 39.96 0.82 35.61 73.97 35.61 73.17 39.96"/></g></g></svg>