<?xml version="1.0" encoding="utf-8"?>
<!-- Generator: Adobe Illustrator 16.0.0, SVG Export Plug-In . SVG Version: 6.00 Build 0)  -->
<!DOCTYPE svg PUBLIC "-//W3C//DTD SVG 1.1//EN" "http://www.w3.org/Graphics/SVG/1.1/DTD/svg11.dtd">
<svg version="1.1" id="Ebene_1" xmlns="http://www.w3.org/2000/svg" xmlns:xlink="http://www.w3.org/1999/xlink" x="0px" y="0px"
	 width="143.115px" height="35.179px" viewBox="0 0 143.115 35.179" enable-background="new 0 0 143.115 35.179"
	 xml:space="preserve">
<g>
	<g>
		<g>
			<path fill="#ffffff" d="M10.65,10.038h-0.057L19.186,0h6.877L15.24,13.295l6.486,13.403H14.27L9.59,16.232h0.059L7.686,26.698H1.385L6.416,0
				h6.135L10.65,10.038z"/>
			<path fill="#ffffff" d="M28.578,26.698h-5.443L26.68,8.009h5.443L28.578,26.698z M32.723,4.699h-5.441L28.166,0h5.443L32.723,4.699z"/>
			<path fill="#ffffff" d="M48.176,19.223c-0.664,3.488-1.582,5.411-3.068,6.443c-1.457,1.067-3.482,1.245-6.426,1.245
				c-6.424,0-7.531-2.171-6.139-9.539c1.203-6.337,2.943-9.576,9.748-9.576c4.777,0,7.91,0.569,6.676,7.227h-5.443
				c0.223-0.997,0.223-1.603-0.063-1.994c-0.316-0.392-0.918-0.534-2.057-0.534c-1.932,0-2.627,0.605-3.418,4.878
				c-0.822,4.378-0.475,4.841,1.582,4.841c2.469,0,2.723-0.677,3.164-2.99H48.176z"/>
			<path fill="#ffffff" d="M57.006,15.022L57.006,15.022l5.012-7.014h5.59l-6.586,9.361l3.924,9.328h-6.166l-2.564-7.582l0,0l-1.424,7.582h-5.443
				L54.379,0h5.443L57.006,15.022z"/>
		</g>
		<g>
			<path fill="#ffffff" d="M73.34,20.086h7.592l-0.475,2.492h-7.592l-2.311,12.21h-2.689L72.896,8.09h14.559l-0.508,2.67H75.08L73.34,20.086z"/>
			<path fill="#ffffff" d="M91.693,15.886c6.17,0,7.057,1.673,5.57,9.576c-1.488,7.867-3.008,9.539-9.178,9.539c-6.172,0-7.059-1.672-5.57-9.539
				C84.002,17.559,85.521,15.886,91.693,15.886z M88.496,32.724c4.463,0,4.938-0.783,6.172-7.262
				c1.234-6.515,1.045-7.298-3.418-7.298s-4.904,0.783-6.139,7.298C83.877,31.94,84.035,32.724,88.496,32.724z"/>
			<path fill="#ffffff" d="M104.193,16.099l-0.57,2.314l0.031,0.071c1.268-2.064,3.355-2.599,5.223-2.599c3.195,0,4.271,1.779,3.607,5.269
				l-0.254,1.353h-2.373l0.254-1.246c0.443-2.313-0.127-3.097-2.215-3.097c-3.102,0-4.432,1.673-4.969,4.983l-2.217,11.641h-2.498
				l3.543-18.689H104.193z"/>
			<path fill="#ffffff" d="M117.811,18.982h0.064c1.359-2.421,3.49-3.097,5.609-3.097c1.994,0,4.432,0.641,4.525,3.097
				c1.582-2.491,4.01-3.097,6.256-3.097c4.271,0,5.381,1.958,4.525,6.586l-2.342,12.316h-2.5l2.279-12.032
				c0.602-3.168,0.441-4.592-2.785-4.592c-3.545,0-5.021,1.139-5.781,5.161l-2.152,11.463h-2.498l2.373-12.53
				c0.379-2.492,0.664-4.094-2.943-4.094c-3.291,0-4.758,1.565-5.484,5.375l-2.121,11.249h-2.5l3.545-18.689h2.5L117.811,18.982z"/>
		</g>
		<g>
			<path fill="#ffffff" d="M141.189,31.276c1.084,0,1.926,0.854,1.926,1.938c0,1.11-0.842,1.964-1.939,1.964c-1.094,0-1.961-0.854-1.961-1.964
				c0-1.085,0.867-1.938,1.961-1.938H141.189z M141.164,31.618c-0.865,0-1.527,0.72-1.527,1.597c0,0.902,0.662,1.609,1.553,1.609
				c0.854,0.013,1.504-0.707,1.504-1.598c0-0.889-0.65-1.608-1.518-1.608H141.164z M140.828,34.288h-0.373v-2.036
				c0.205-0.036,0.42-0.061,0.697-0.061c0.338,0,0.506,0.061,0.627,0.158c0.121,0.086,0.205,0.244,0.205,0.438
				c0,0.244-0.182,0.402-0.385,0.476v0.025c0.168,0.072,0.264,0.23,0.324,0.499c0.061,0.305,0.107,0.428,0.156,0.5h-0.385
				c-0.061-0.072-0.109-0.256-0.168-0.524c-0.049-0.231-0.182-0.329-0.459-0.329h-0.24V34.288z M140.828,33.142h0.252
				c0.266,0,0.52-0.085,0.52-0.316c0-0.195-0.135-0.342-0.482-0.342c-0.145,0-0.229,0.013-0.289,0.024V33.142z"/>
		</g>
	</g>
	<polygon fill="#ffffff" points="63.65,34.778 0,34.778 0.703,31.02 64.355,31.02 	"/>
</g>
</svg>
